<svg xmlns="http://www.w3.org/2000/svg" width="750" height="500" viewBox="0 0 750 500" preserveAspectRatio="none"><defs><linearGradient id="vrl0a" x1="375.21" x2="375.21" y1="0" y2="500" gradientUnits="userSpaceOnUse"><stop offset="0" stop-color="#412b6a"/><stop offset="0" stop-color="#412b6a"/><stop offset=".59" stop-color="#bb6391"/><stop offset="1" stop-color="#faa7b2"/></linearGradient><linearGradient id="vrl0b" x1="311.5" x2="311.5" y1="555.78" y2="322.75" gradientUnits="userSpaceOnUse"><stop offset="0" stop-color="#6c457b"/><stop offset=".36" stop-color="#6c457b"/><stop offset="1" stop-color="#432564"/><stop offset="1" stop-color="#432564"/></linearGradient><linearGradient id="vrl0c" x1="328.14" x2="781.73" y1="635.98" y2="374.1" gradientUnits="userSpaceOnUse"><stop offset="0" stop-color="#6c457b"/><stop offset=".39" stop-color="#6c457b"/><stop offset=".81" stop-color="#472866"/><stop offset="1" stop-color="#432564"/><stop offset="1" stop-color="#432564"/></linearGradient><linearGradient id="vrl0d" x1="537.9" x2="867.53" y1="418.1" y2="418.1" gradientUnits="userSpaceOnUse"><stop offset="0" stop-color="#f9a1a6"/><stop offset="0" stop-color="#f9a1a6"/><stop offset=".24" stop-color="#dd86a2"/><stop offset="1" stop-color="#5d3f79"/></linearGradient><linearGradient id="vrl0e" x1="77.49" x2="346.05" y1="403.82" y2="403.82" gradientUnits="userSpaceOnUse"><stop offset="0" stop-color="#f9a1a6"/><stop offset="0" stop-color="#f9a1a6"/><stop offset=".24" stop-color="#dd86a2"/><stop offset="1" stop-color="#5d3f79"/></linearGradient><linearGradient id="vrl0f" x1="-117.03" x2="192.77" y1="573.77" y2="394.91" gradientUnits="userSpaceOnUse"><stop offset="0" stop-color="#6c457b"/><stop offset=".39" stop-color="#6c457b"/><stop offset="1" stop-color="#432564"/><stop offset="1" stop-color="#432564"/></linearGradient><linearGradient id="vrl0g" x1="108.84" x2="615.58" y1="805.37" y2="380.16" gradientUnits="userSpaceOnUse"><stop offset="0" stop-color="#6c457b"/><stop offset=".55" stop-color="#6c457b"/><stop offset=".78" stop-color="#472866"/><stop offset="1" stop-color="#432564"/><stop offset="1" stop-color="#432564"/></linearGradient><linearGradient id="vrl0h" x1="300.52" x2="793.98" y1="444.5" y2="444.5" gradientUnits="userSpaceOnUse"><stop offset="0" stop-color="#f9a1a6"/><stop offset="0" stop-color="#f9a1a6"/><stop offset=".24" stop-color="#dd86a2"/><stop offset="1" stop-color="#5d3f79"/></linearGradient><linearGradient id="vrl0i" x1="709.31" x2="977.87" y1="497.79" y2="497.79" gradientUnits="userSpaceOnUse"><stop offset="0" stop-color="#f9a1a6"/><stop offset="0" stop-color="#f9a1a6"/><stop offset=".24" stop-color="#dd86a2"/><stop offset="1" stop-color="#5d3f79"/></linearGradient><linearGradient id="vrl0j" x1="659" x2="615.93" y1="667.21" y2="422.94" gradientUnits="userSpaceOnUse"><stop offset="0" stop-color="#6c457b"/><stop offset=".51" stop-color="#6c457b"/><stop offset="1" stop-color="#432564"/><stop offset="1" stop-color="#432564"/></linearGradient><linearGradient id="vrl0k" x1="23.51" x2="292.07" y1="524.82" y2="524.82" gradientUnits="userSpaceOnUse"><stop offset="0" stop-color="#f9a1a6"/><stop offset="0" stop-color="#f9a1a6"/><stop offset=".24" stop-color="#dd86a2"/><stop offset="1" stop-color="#5d3f79"/></linearGradient><linearGradient id="vrl0l" x1="-26.8" x2="-69.87" y1="705.79" y2="461.52" gradientUnits="userSpaceOnUse"><stop offset="0" stop-color="#6c457b"/><stop offset=".51" stop-color="#6c457b"/><stop offset="1" stop-color="#432564"/><stop offset="1" stop-color="#432564"/></linearGradient></defs><g><g><g><path fill="url(#vrl0a)" d="M.212 500h749.787V0H.212z"/></g></g><g><path fill="url(#vrl0b)" d="M.224 339.897v159.919H750V356.129c-376.291 96.06-614.925-9.803-725.795-16.027a251.55 251.55 0 0 0-14.062-.387c-3.297 0-6.605.062-9.919.182z"/></g><g><path fill="url(#vrl0c)" d="M540.464 316.089c-23.77 24.133-75.044 74.637-125.025 106.334-42.059 26.673-88.126 57.113-118.541 77.393H750V464.52c-36.578-20.225-75.442-44.073-106.571-68.784-57.939-45.992-62.216-69.827-80.455-82.263-3.012-2.054-6.336-3.054-9.647-3.054-4.606 0-9.187 1.937-12.863 5.67z"/></g><g><path fill="url(#vrl0d)" d="M551.411 350.15c-39.609 15.243 19.255 36.452 31.451 49.491 15.402 16.466-1.286 33.205 18.655 49.434 23.104 18.804 88.378 37.014 148.483 50.622v-57.293c-63.832-43.714-139.253-95.536-187.026-128.931 0 0 28.048 21.434-11.563 36.677z"/></g><g><path fill="url(#vrl0e)" d="M99.16 361.969c-27.484 22.541-29.288 81.451-2.754 106.413 11.646 10.955 28.995 19.271 54.561 21.945 101.78 10.641 195.088-38.311 195.088-38.311-72.341 6.654-199.328-136.22-199.328-136.22z"/></g><g><path fill="url(#vrl0f)" d="M43.001 377.923c-10.149 5.903-25.254 14.395-42.777 24.123v97.77h174.337c-110.465-96.048-17.26-83.203-23.533-171.116-.788-11.037-4.709-15.48-10.888-15.478-19.335.006-60.741 43.529-97.139 64.701z"/></g><g><path fill="url(#vrl0g)" d="M326.98 297.728c-29.956 31.015-102.086 102.193-178.514 151.827a21829.064 21829.064 0 0 0-77 50.261h537.126c-46.896-26.64-95.101-57.014-134.596-88.365-82.727-65.67-88.834-99.702-114.874-117.456-4.318-2.945-9.102-4.389-13.86-4.389-6.575 0-13.101 2.757-18.282 8.122z"/></g><g><path fill="url(#vrl0h)" d="M341.551 373.872c-56.556 21.767-53.502 45.637 2.087 94.97 12.057 10.699 26.712 21.077 43.757 30.974h258.45c-92.895-60.194-208.805-139.083-283.633-203.57 0 0 35.894 55.861-20.661 77.626z"/></g><g><path fill="url(#vrl0i)" d="M730.977 444.396c-14.433 11.838-21.784 33.707-21.668 55.42H750v-73.885z"/></g><g><path fill="url(#vrl0j)" d="M674.818 460.351c-15.22 8.854-41.604 23.538-70.543 39.465H750v-94.64c-21.174 14.03-49.431 40.198-75.182 55.175z"/></g><g><path fill="url(#vrl0k)" d="M45.179 482.975c-5.366 4.401-9.755 10.191-13.143 16.841h124.521c-36.505-32.29-63.812-63.014-63.812-63.014z"/></g><g><path fill="url(#vrl0l)" d="M.224 491.864v7.952h87.712c6.08-12.622 10.67-28.253 9.11-50.11-.787-11.038-4.709-15.48-10.888-15.478-17.372.005-52.568 35.146-85.934 57.636z"/></g></g></svg>