<svg xmlns="http://www.w3.org/2000/svg" width="278" height="191" viewBox="0 0 278 191"><defs><linearGradient id="l2nia" x1="139.2" x2="139.2" y1=".09" y2="190.57" gradientUnits="userSpaceOnUse"><stop offset="0" stop-color="#412b6a"/><stop offset="0" stop-color="#412b6a"/><stop offset=".59" stop-color="#bb6391"/><stop offset="1" stop-color="#faa7b2"/></linearGradient><linearGradient id="l2nib" x1="114.17" x2="114.17" y1="202.06" y2="112.24" gradientUnits="userSpaceOnUse"><stop offset="0" stop-color="#6c457b"/><stop offset=".36" stop-color="#6c457b"/><stop offset="1" stop-color="#432564"/><stop offset="1" stop-color="#432564"/></linearGradient><linearGradient id="l2nic" x1="120.59" x2="295.4" y1="232.97" y2="132.04" gradientUnits="userSpaceOnUse"><stop offset="0" stop-color="#6c457b"/><stop offset=".39" stop-color="#6c457b"/><stop offset=".81" stop-color="#472866"/><stop offset="1" stop-color="#432564"/><stop offset="1" stop-color="#432564"/></linearGradient><linearGradient id="l2nid" x1="201.43" x2="328.47" y1="148.99" y2="148.99" gradientUnits="userSpaceOnUse"><stop offset="0" stop-color="#f9a1a6"/><stop offset="0" stop-color="#f9a1a6"/><stop offset=".24" stop-color="#dd86a2"/><stop offset="1" stop-color="#5d3f79"/></linearGradient><linearGradient id="l2nie" x1="23.99" x2="127.49" y1="143.49" y2="143.49" gradientUnits="userSpaceOnUse"><stop offset="0" stop-color="#f9a1a6"/><stop offset="0" stop-color="#f9a1a6"/><stop offset=".24" stop-color="#dd86a2"/><stop offset="1" stop-color="#5d3f79"/></linearGradient><linearGradient id="l2nif" x1="-50.98" x2="68.42" y1="208.99" y2="140.05" gradientUnits="userSpaceOnUse"><stop offset="0" stop-color="#6c457b"/><stop offset=".39" stop-color="#6c457b"/><stop offset="1" stop-color="#432564"/><stop offset="1" stop-color="#432564"/></linearGradient><linearGradient id="l2nig" x1="36.07" x2="231.37" y1="298.25" y2="134.37" gradientUnits="userSpaceOnUse"><stop offset="0" stop-color="#6c457b"/><stop offset=".55" stop-color="#6c457b"/><stop offset=".78" stop-color="#472866"/><stop offset="1" stop-color="#432564"/><stop offset="1" stop-color="#432564"/></linearGradient><linearGradient id="l2nih" x1="109.94" x2="300.12" y1="159.17" y2="159.17" gradientUnits="userSpaceOnUse"><stop offset="0" stop-color="#f9a1a6"/><stop offset="0" stop-color="#f9a1a6"/><stop offset=".24" stop-color="#dd86a2"/><stop offset="1" stop-color="#5d3f79"/></linearGradient><linearGradient id="l2nii" x1="267.49" x2="371" y1="179.71" y2="179.71" gradientUnits="userSpaceOnUse"><stop offset="0" stop-color="#f9a1a6"/><stop offset="0" stop-color="#f9a1a6"/><stop offset=".24" stop-color="#dd86a2"/><stop offset="1" stop-color="#5d3f79"/></linearGradient><linearGradient id="l2nij" x1="248.1" x2="231.5" y1="245" y2="150.86" gradientUnits="userSpaceOnUse"><stop offset="0" stop-color="#6c457b"/><stop offset=".51" stop-color="#6c457b"/><stop offset="1" stop-color="#432564"/><stop offset="1" stop-color="#432564"/></linearGradient><linearGradient id="l2nik" x1="3.18" x2="106.69" y1="190.13" y2="190.13" gradientUnits="userSpaceOnUse"><stop offset="0" stop-color="#f9a1a6"/><stop offset="0" stop-color="#f9a1a6"/><stop offset=".24" stop-color="#dd86a2"/><stop offset="1" stop-color="#5d3f79"/></linearGradient><linearGradient id="l2nil" x1="-16.21" x2="-32.81" y1="259.87" y2="165.73" gradientUnits="userSpaceOnUse"><stop offset="0" stop-color="#6c457b"/><stop offset=".51" stop-color="#6c457b"/><stop offset="1" stop-color="#432564"/><stop offset="1" stop-color="#432564"/></linearGradient><linearGradient id="l2nim" x1="206.09" x2="206.09" y1="34.91" y2="72.26" gradientUnits="userSpaceOnUse"><stop offset="0" stop-color="#f9a1a6"/><stop offset="0" stop-color="#f9a1a6"/><stop offset="1" stop-color="#dd86a2" stop-opacity="0"/></linearGradient></defs><g><g><path fill="url(#l2nia)" d="M.904 190.575h276.59V.092H.904z"/></g><g><path fill="url(#l2nib)" d="M.904 190.575h276.589v-64.048C135.742 161.07 45.619 121.3 3.45 118.933a89.643 89.643 0 0 0-2.546-.108z"/></g><g><path fill="url(#l2nic)" d="M202.418 109.678c-9.161 9.301-28.922 28.765-48.186 40.982-27.244 17.278-58.848 38.655-58.848 38.655h182.109v-25.623c-12.359-7.061-24.996-15.065-35.392-23.318-22.33-17.725-23.978-26.911-31.007-31.704-1.161-.792-2.442-1.177-3.718-1.177-1.776 0-3.541.747-4.958 2.185z"/></g><g><path fill="url(#l2nid)" d="M206.636 122.806c-15.265 5.874 7.422 14.048 12.122 19.073 5.936 6.347-.496 12.798 7.19 19.052 8.18 6.658 30.078 13.122 51.545 18.196v-24.658c-23.278-15.952-49.386-33.906-66.399-45.799 0 0 10.809 8.26-4.458 14.136z"/></g><g><path fill="url(#l2nie)" d="M32.338 127.36c-10.593 8.688-11.288 31.392-1.062 41.012 4.488 4.222 11.175 7.428 21.028 8.458 39.226 4.102 75.188-14.765 75.188-14.765-27.881 2.564-76.822-52.5-76.822-52.5z"/></g><g><path fill="url(#l2nif)" d="M10.694 133.509a745.513 745.513 0 0 1-9.79 5.564v51.502h56.818c5.773-3.121 9.391-5.255 9.391-5.255-51.338-42.328-12.267-35.493-14.785-70.781-.304-4.254-1.815-5.966-4.197-5.966-7.452.002-23.409 16.776-37.437 24.936z"/></g><g><path fill="url(#l2nig)" d="M120.14 102.601c-11.545 11.953-39.344 39.386-68.8 58.515a9492.05 9492.05 0 0 0-45.039 29.459h240.774c-23.226-12.306-49.792-27.885-70.275-44.144-31.883-25.309-34.236-38.426-44.272-45.269-1.665-1.134-3.508-1.691-5.342-1.691-2.534 0-5.049 1.063-7.046 3.13z"/></g><g><path fill="url(#l2nih)" d="M125.756 131.949c-21.797 8.388-20.62 17.587.805 36.6 8.956 7.948 21.629 15.433 37.451 22.026h94.727c-37.481-23.861-91.774-59.893-125.021-88.544 0 0 13.835 21.529-7.962 29.918z"/></g><g><path fill="url(#l2nii)" d="M275.843 159.129c-7.867 6.451-10.275 20.633-6.805 31.446h8.455v-33.049z"/></g><g><path fill="url(#l2nij)" d="M254.199 165.277c-9.034 5.255-28.271 15.839-45.599 25.298h68.893v-42.458c-7.176 5.49-15.531 12.645-23.294 17.16z"/></g><g><path fill="url(#l2nik)" d="M11.533 173.997c-4.499 3.689-7.213 9.908-8.063 16.578h63.146c-19.704-15.194-36.751-34.374-36.751-34.374z"/></g><g><path fill="url(#l2nil)" d="M.904 172.583v17.992h21.3c3.804-6.851 10.401-14.237 9.319-29.4-.303-4.254-1.815-5.966-4.196-5.966-5.538.002-15.774 9.266-26.423 17.374z"/></g><g clip-path="url(#clip-1:1:sm)"><path fill="url(#l2nim)" d="M187.419 53.583c0 10.312 8.361 18.672 18.673 18.672 10.312 0 18.672-8.36 18.672-18.672 0-10.312-8.36-18.672-18.672-18.672-10.312 0-18.673 8.36-18.673 18.672z"/></g></g></svg>